<svg xmlns="http://www.w3.org/2000/svg" width="293" height="269.142" viewBox="0 0 293 269.142">
  <g transform="translate(-37 -28.858)">
    <text transform="translate(38 268)" fill="#fff" stroke="#fff" stroke-width="1" font-size="19" font-family="InkFree, Ink Free"><tspan x="0" y="0">Thanks for supporting us by adding </tspan><tspan x="0" y="23">more SustainAtives to our collection</tspan></text>
    <g transform="translate(63 28.858)" fill="none">
      <path d="M116.671,212.642C53.938,170.184,21.037,131.559,7.543,99.233-28.6,12.6,74.644-28.829,116.671,22.312,158.7-28.829,261.946,12.6,225.8,99.233,212.3,131.559,179.4,170.184,116.671,212.642Z" stroke="none"/>
      <path d="M 116.6707916259766 209.0154113769531 C 131.1777038574219 199.1274719238281 144.5263366699219 189.1196746826172 156.3695678710938 179.2511291503906 C 168.0368347167969 169.5292053222656 178.5130615234375 159.7180480957031 187.5072479248047 150.0901947021484 C 204.0747222900391 132.3555145263672 216.0262145996094 114.8557434082031 223.0295257568359 98.07731628417969 C 228.5597534179688 84.82347106933594 230.9731750488281 72.10031890869141 230.2026824951172 60.26131820678711 C 229.8501434326172 54.84454727172852 228.8201751708984 49.59331893920898 227.1413726806641 44.65351104736328 C 225.5412902832031 39.94547271728516 223.3328247070313 35.46139526367188 220.5772857666016 31.32585525512695 C 217.6318664550781 26.90531730651855 214.0471801757813 22.85558700561523 209.9228363037109 19.28908538818359 C 205.9233245849609 15.8306245803833 201.4315948486328 12.83758640289307 196.5723266601563 10.39320182800293 C 186.95751953125 5.556509494781494 176.1945648193359 3.000009298324585 165.447021484375 3.000009298324585 C 161.0683288574219 3.000009298324585 156.7217864990234 3.429316997528076 152.5281372070313 4.276047706604004 C 148.2377471923828 5.142278671264648 144.0798645019531 6.451509475708008 140.1700286865234 8.167393684387207 C 131.8748626708984 11.80777835845947 124.7483673095703 17.20743179321289 118.9885635375977 24.21635627746582 L 116.6707916259766 27.03673934936523 L 114.3530197143555 24.21635627746582 C 108.5919876098633 17.2059326171875 101.4656372070313 11.80593204498291 93.17201995849609 8.166239738464355 C 89.26271820068359 6.450624942779541 85.10514068603516 5.141624927520752 80.81478881835938 4.275624752044678 C 76.62136840820313 3.429201602935791 72.27436828613281 3.000009298324585 67.89456176757813 3.000009298324585 C 57.14817810058594 3.000009298324585 46.38598251342773 5.556778430938721 36.77140808105469 10.39385509490967 C 31.91233062744141 12.83847141265869 27.42067718505859 15.83170127868652 23.42117691040039 19.2903938293457 C 19.29682922363281 22.85708618164063 15.71213817596436 26.90700912475586 12.76659965515137 31.32766342163086 C 10.01098346710205 35.46339416503906 7.802368640899658 39.94758605957031 6.20213794708252 44.65570068359375 C 4.52313756942749 49.59554672241211 3.492983818054199 54.84674072265625 3.140291690826416 60.26343154907227 C 2.369368553161621 72.10224151611328 4.78233003616333 84.82466125488281 10.3119068145752 98.07697296142578 C 17.31536865234375 114.8557434082031 29.26686859130859 132.3555145263672 45.83433151245117 150.0901947021484 C 54.82852172851563 159.7180480957031 65.30475616455078 169.5292053222656 76.97202301025391 179.2511291503906 C 88.81524658203125 189.1196746826172 102.1638717651367 199.1274719238281 116.6707916259766 209.0154113769531 M 116.6707916259766 212.6419372558594 C 53.93763732910156 170.1843109130859 21.03660011291504 131.5592803955078 7.543406963348389 99.23255157470703 C -17.79117202758789 38.51536178588867 25.35047721862793 1.510854872321943e-05 67.89455413818359 1.510854872321943e-05 C 86.05257415771484 1.510854872321943e-05 104.0992050170898 7.013786792755127 116.6707916259766 22.31162452697754 C 129.2398071289063 7.016908168792725 147.2927551269531 1.510854872321943e-05 165.447021484375 1.510854872321943e-05 C 207.9947052001953 1.510854872321943e-05 251.1349639892578 38.51007461547852 225.7981719970703 99.23255157470703 C 212.3049774169922 131.5592803955078 179.4039459228516 170.1843109130859 116.6707916259766 212.6419372558594 Z" stroke="none" fill="#fff"/>
    </g>
  </g>
</svg>
