<svg xmlns="http://www.w3.org/2000/svg" viewBox="0 0 60 55">
  <g transform="translate(-276 -155)">
    <path d="M27.5,0h5a27.5,27.5,0,0,1,0,55h-5a27.5,27.5,0,0,1,0-55Z" transform="translate(276 155)" fill="#00766a"/>
    <g transform="translate(287.339 167)">
      <path  d="M28.692,38.377H13.463a1.229,1.229,0,0,1-1.217-1.119l-1.74-20.775a.4.4,0,0,1,.4-.432H31.253a.4.4,0,0,1,.4.432l-1.74,20.775A1.229,1.229,0,0,1,28.692,38.377ZM11.338,16.849l1.7,20.342a.425.425,0,0,0,.421.388H28.692a.425.425,0,0,0,.422-.388l1.7-20.342Z" transform="translate(-2.911 -8.444)" fill="#fff" stroke="#fff" stroke-width="1"/>
      <path  d="M29.807,12.426H6.526a.866.866,0,0,1-.865-.865V9.55a.866.866,0,0,1,.865-.865H29.807a.866.866,0,0,1,.865.865v2.012a.866.866,0,0,1-.865.864ZM6.526,9.483a.067.067,0,0,0-.067.067v2.012a.067.067,0,0,0,.067.067H29.807a.067.067,0,0,0,.067-.067V9.55a.067.067,0,0,0-.067-.067Z" transform="translate(0 -4.017)" fill="#fff" stroke="#fff" stroke-width="1"/>
      <path  d="M34.62,5.466H27.587a.4.4,0,0,1-.4-.4V3.045A1.046,1.046,0,0,1,28.233,2h5.741a1.046,1.046,0,0,1,1.045,1.045V5.067A.4.4,0,0,1,34.62,5.466Zm-6.634-.8h6.235V3.045a.247.247,0,0,0-.247-.247H28.233a.247.247,0,0,0-.247.247Z" transform="translate(-12.937)" fill="#fff" stroke="#fff" stroke-width="1"/>
      <path  d="M46.861,39.127h-.035a.4.4,0,0,1-.363-.432l.913-10.427a.4.4,0,1,1,.795.07l-.913,10.426A.4.4,0,0,1,46.861,39.127Z" transform="translate(-24.519 -15.567)" fill="#fff" stroke="#fff" stroke-width="1"/>
      <path  d="M36.4,39.125a.4.4,0,0,1-.4-.4V28.3a.4.4,0,1,1,.8,0V38.726A.4.4,0,0,1,36.4,39.125Z" transform="translate(-18.232 -15.565)" fill="#fff" stroke="#fff" stroke-width="1"/>
      <path  d="M24.562,39.125a.4.4,0,0,1-.4-.364l-.911-10.427a.4.4,0,1,1,.795-.07l.913,10.427a.4.4,0,0,1-.363.432Z" transform="translate(-10.57 -15.564)" fill="#fff" stroke="#fff" stroke-width="1"/>
    </g>
  </g>
</svg>
