<svg xmlns="http://www.w3.org/2000/svg" width="60" height="55" viewBox="0 0 60 55">
  <g transform="translate(-199 -129)">
    <g transform="translate(288 174)">
      <g>
        <g transform="translate(0 0)">
          <g transform="translate(-89 -45)" fill="#fff">
            <path d="M 32.5 54.5 L 27.5 54.5 C 23.85479927062988 54.5 20.31891059875488 53.78619003295898 16.99053955078125 52.37841033935547 C 13.77544975280762 51.01855087280273 10.88790988922119 49.07167816162109 8.408120155334473 46.59188079833984 C 5.928319931030273 44.11209106445313 3.981450080871582 41.22454833984375 2.62158989906311 38.00946044921875 C 1.213809967041016 34.68109130859375 0.5 31.14520072937012 0.5 27.5 C 0.5 23.85479927062988 1.213809967041016 20.31891059875488 2.62158989906311 16.99053955078125 C 3.981450080871582 13.77544975280762 5.928319931030273 10.88790988922119 8.408120155334473 8.408120155334473 C 10.88790988922119 5.928319931030273 13.77544975280762 3.981450080871582 16.99053955078125 2.62158989906311 C 20.31891059875488 1.213809967041016 23.85479927062988 0.5 27.5 0.5 L 32.5 0.5 C 36.14519882202148 0.5 39.68109130859375 1.213809967041016 43.00946044921875 2.62158989906311 C 46.22454833984375 3.981450080871582 49.11209106445313 5.928319931030273 51.59188079833984 8.408120155334473 C 54.07167816162109 10.88790988922119 56.01855087280273 13.77544975280762 57.37841033935547 16.99053955078125 C 58.78619003295898 20.31891059875488 59.5 23.85479927062988 59.5 27.5 C 59.5 31.14520072937012 58.78619003295898 34.68109130859375 57.37841033935547 38.00946044921875 C 56.01855087280273 41.22454833984375 54.07167816162109 44.11209106445313 51.59188079833984 46.59188079833984 C 49.11209106445313 49.07167816162109 46.22454833984375 51.01855087280273 43.00946044921875 52.37841033935547 C 39.68109130859375 53.78619003295898 36.14519882202148 54.5 32.5 54.5 Z" stroke="none"/>
            <path d="M 27.5 1 C 23.92208099365234 1 20.45172119140625 1.700519561767578 17.18531036376953 3.082088470458984 C 14.02983093261719 4.416751861572266 11.19570922851563 6.327629089355469 8.761669158935547 8.761669158935547 C 6.327629089355469 11.19570922851563 4.416751861572266 14.02983093261719 3.082088470458984 17.18531036376953 C 1.700519561767578 20.45172119140625 1 23.92207908630371 1 27.5 C 1 31.07792091369629 1.700519561767578 34.54827880859375 3.082088470458984 37.81468963623047 C 4.416751861572266 40.97016906738281 6.327629089355469 43.80429077148438 8.761669158935547 46.23833084106445 C 11.19570922851563 48.67237091064453 14.02983093261719 50.583251953125 17.18531036376953 51.91791152954102 C 20.45172119140625 53.29948043823242 23.92208099365234 54 27.5 54 L 32.5 54 C 36.07791900634766 54 39.54827880859375 53.29948043823242 42.81468963623047 51.91791152954102 C 45.97016906738281 50.583251953125 48.80429077148438 48.67237091064453 51.23833084106445 46.23833084106445 C 53.67237091064453 43.80429077148438 55.583251953125 40.97016906738281 56.91791152954102 37.81468963623047 C 58.29948043823242 34.54827880859375 59 31.07792091369629 59 27.5 C 59 23.92207908630371 58.29948043823242 20.45172119140625 56.91791152954102 17.18531036376953 C 55.583251953125 14.02983093261719 53.67237091064453 11.19570922851563 51.23833084106445 8.761669158935547 C 48.80429077148438 6.327629089355469 45.97016906738281 4.416751861572266 42.81468963623047 3.082088470458984 C 39.54827880859375 1.700519561767578 36.07791900634766 1 32.5 1 L 27.5 1 M 27.5 0 L 32.5 0 C 47.68782806396484 0 60 12.31216812133789 60 27.5 C 60 42.68782806396484 47.68782806396484 55 32.5 55 L 27.5 55 C 12.31216812133789 55 0 42.68782806396484 0 27.5 C 0 12.31216812133789 12.31216812133789 0 27.5 0 Z" stroke="none" fill="#027368"/>
          </g>
        </g>
      </g>
      <path d="M31.685,4.347A9.372,9.372,0,0,0,18.9,5.279l-1.35,1.391L16.2,5.279A9.372,9.372,0,0,0,3.406,4.347,9.841,9.841,0,0,0,2.728,18.6L15.99,32.29a2.149,2.149,0,0,0,3.1,0L32.356,18.6a9.835,9.835,0,0,0-.672-14.249Z" transform="translate(-76.327 -33.17)" fill="#027368"/>
    </g>
    <path d="M4.613,14.507.2,10.092a.679.679,0,0,1,0-.96l.96-.96a.679.679,0,0,1,.96,0l2.974,2.974,6.369-6.369a.679.679,0,0,1,.96,0l.96.96a.679.679,0,0,1,0,.96l-7.81,7.81A.679.679,0,0,1,4.613,14.507Z" transform="translate(223.1 146.5)" fill="#fff"/>
  </g>
</svg>
