<?xml version="1.0" encoding="UTF-8"?>
<svg viewBox="0 0 60 55" xmlns="http://www.w3.org/2000/svg">
<g transform="translate(0)" data-name="Gruppe 146">
<g transform="translate(0)" data-name="Gruppe 90">
<g transform="translate(0)" data-name="Gruppe 86">
<g transform="translate(0)" data-name="Gruppe 87">
<path transform="translate(0)" d="m27.5 0h5a27.5 27.5 0 0 1 0 55h-5a27.5 27.5 0 0 1 0-55z" fill="#00766a" data-name="Pfad 86"/>
</g>
</g>
<g transform="translate(16.672 17.078)" style="isolation:isolate" data-name="Gruppe 61">
<path transform="translate(.001 -2.248)" d="M22.584,3.744a6.681,6.681,0,0,0-9.116.664l-.962.992-.962-.992a6.68,6.68,0,0,0-9.116-.664A7.015,7.015,0,0,0,1.944,13.9L11.4,23.661a1.532,1.532,0,0,0,2.213,0L23.063,13.9a7.01,7.01,0,0,0-.479-10.156Z" fill="#fff" data-name="Icon awesome-heart"/>
</g>
</g>
</g>
</svg>
