<svg viewBox="-4 0 393 393.99" xmlns="http://www.w3.org/2000/svg">
<path d="m368.31 0h-351.26c-6.1953-0.011719-11.875 3.4492-14.707 8.9609-2.8711 5.5859-2.3672 12.312 1.3008 17.414l128.69 181.28c0.042969 0.0625 0.089844 0.12109 0.13281 0.18359 4.6758 6.3125 7.2031 13.957 7.2188 21.816v147.8c-0.027344 4.3789 1.6914 8.582 4.7773 11.688 3.0859 3.1055 7.2812 4.8477 11.656 4.8477 2.2266 0 4.4258-0.44531 6.4805-1.2969l72.312-27.574c6.4805-1.9766 10.781-8.0898 10.781-15.453v-120.01c0.011719-7.8555 2.543-15.504 7.2148-21.816 0.042969-0.0625 0.089844-0.12109 0.13281-0.18359l128.68-181.29c3.668-5.0977 4.1719-11.82 1.3008-17.406-2.832-5.5117-8.5117-8.9727-14.711-8.9609zm-131.53 195.99c-7.1875 9.7539-11.074 21.547-11.098 33.664v117.58l-66 25.164v-142.74c-0.023438-12.117-3.9102-23.91-11.102-33.664l-124.93-175.99h338.07z"/>
</svg>
