<svg viewBox="-17 0 483 483.03" xmlns="http://www.w3.org/2000/svg">
<path d="m194.49 109.51c2.5234 0 4.9023-1.1914 6.4102-3.2148 1.5117-2.0234 1.9805-4.6367 1.2617-7.0586-5.7344-19.582-15.645-37.688-29.055-53.062-10.805-11.496-26.887-16.418-42.273-12.938-2.125 0.8125-3.8008 2.4922-4.6133 4.6172-0.44141 1.1953-0.76953 2.4297-0.97656 3.6875-0.24609 1.4922-0.37891 3-0.40234 4.5117v0.12891c0.097656 12.758 5.2383 24.961 14.305 33.941 15.375 13.398 33.469 23.305 53.039 29.035 0.75 0.22266 1.5234 0.34375 2.3047 0.35156zm-44-40.715c-3.1758-3.1797-5.668-6.9805-7.3281-11.16v-0.078124c-0.35156-0.88672-0.65625-1.7773-0.91797-2.6328-0.13672-0.46484-0.23438-0.90234-0.35156-1.3594-0.12109-0.45703-0.22656-0.80078-0.30469-1.1992-0.082032-0.40234-0.097656-0.5625-0.15234-0.84766-0.23438-1.1953-0.39844-2.4023-0.48828-3.6172 7.8906 0.59766 15.301 4.0039 20.895 9.6016 7.9531 8.9922 14.363 19.238 18.969 30.328-11.102-4.6211-21.363-11.055-30.359-19.035z"/>
<path d="m440.01 115.03h-123.49c5.3398-3.6484 10.355-7.7539 14.984-12.266 28.617-28.703 29.555-72.223 11.273-90.504s-61.785-17.359-90.52 11.289c-11.75 12.789-21.297 27.438-28.25 43.352-6.9531-15.926-16.508-30.582-28.27-43.375-28.703-28.617-72.219-29.555-90.504-11.273-18.289 18.281-17.344 61.801 11.277 90.512 4.6328 4.5117 9.6484 8.6172 14.984 12.266h-123.49c-4.418 0-8 3.582-8 8v80c0 4.418 3.582 8 8 8h16v232c0.027343 22.078 17.922 39.973 40 40h320c22.082-0.027344 39.977-17.922 40-40v-232h16c4.418 0 8-3.582 8-8v-80c0-4.418-3.582-8-8-8zm-176.43-80.176c22.992-22.922 56.527-22.656 67.895-11.289 11.367 11.367 11.641 44.887-11.281 67.887-10.496 9.7031-22.48 17.66-35.496 23.578h-47.805v-0.51953c0-1.8242-0.13672-3.6719-0.3125-5.5312-0.066406-0.61328-0.13672-1.2227-0.20703-1.8477-0.18359-1.5352-0.41016-3.0664-0.68359-4.5898-0.085937-0.53516-0.17578-1.0742-0.26953-1.6016-0.38281-1.9922-0.80078-3.9531-1.2812-5.8477-0.0625-0.27344-0.13672-0.51172-0.19922-0.80078-0.42578-1.6562-0.86328-3.1992-1.3125-4.7969-0.0625-0.21875-0.12109-0.45703-0.18359-0.67578 6.5547-19.938 17.156-38.312 31.137-53.965zm-7.5703 160.18h-64v-64h64zm-128.18-103.57c-22.926-23-22.656-56.52-11.285-67.895 11.367-11.375 44.887-11.641 67.871 11.266 14.555 16.305 25.465 35.531 32 56.391 0.90234 2.8086 1.5977 5.5039 2.2539 8.1211 0.18359 0.75 0.33594 1.4766 0.49609 2.2148 0.43359 1.9531 0.78125 3.8164 1.043 5.6016 0.085937 0.60547 0.19922 1.2305 0.26953 1.8203 0.25391 1.9961 0.39062 4.0078 0.41016 6.0195h-57.57c-13.008-5.9062-24.988-13.852-35.488-23.539zm-111.82 39.57h160v64h-160zm24 312v-232h152v256h-128c-13.254 0-24-10.746-24-24zm168 24v-256h32v256zm200-24c0 13.254-10.742 24-24 24h-128v-256h152zm24-248h-160v-64h160z"/>
<path d="m253.51 109.53c0.76953 0 1.5352-0.10938 2.2734-0.32812 19.594-5.7266 37.707-15.652 53.078-29.09 11.383-10.887 16.289-26.902 12.961-42.297-0.80469-2.1172-2.4805-3.7891-4.5977-4.5977-15.395-3.3281-31.41 1.5781-42.297 12.961-13.434 15.371-23.359 33.484-29.09 53.078-0.71484 2.4219-0.25 5.0391 1.2617 7.0586 1.5117 2.0234 3.8867 3.2148 6.4102 3.2148zm32.73-52.039c5.6016-5.5938 13.02-8.9961 20.91-9.6016-0.59766 7.8945-4.0039 15.316-9.5977 20.918-9 8.0078-19.277 14.453-30.402 19.074 4.625-11.125 11.078-21.395 19.09-30.391z"/>
</svg>
