<svg enable-background="new 0 0 188.111 188.111" version="1.1" viewBox="0 0 188.11 188.11" xml:space="preserve" xmlns="http://www.w3.org/2000/svg">
	<path d="m122.74 55.676-68.784 26.719c-2.797 1.086-4.677 3.736-4.78 6.735s1.592 5.771 4.309 7.045l26.172 12.286 12.291 26.172c1.239 2.638 3.888 4.312 6.788 4.312 0.086 0 0.172-1e-3 0.258-4e-3 2.999-0.103 5.647-1.983 6.734-4.78l26.719-68.778c1.076-2.771 0.414-5.917-1.688-8.019-2.103-2.102-5.251-2.764-8.019-1.688zm-24.656 56.737-6.001-12.778c-0.744-1.584-2.018-2.858-3.602-3.601l-12.773-5.996 36.59-14.213-14.214 36.588z"/>
	<path d="m94.052 0c-51.86 1e-3 -94.051 42.194-94.051 94.055 0 51.862 42.191 94.056 94.052 94.057 51.864-1e-3 94.058-42.194 94.058-94.056 0-51.863-42.195-94.056-94.059-94.056zm0 173.11c-43.589-1e-3 -79.052-35.465-79.052-79.057 0-43.59 35.462-79.054 79.052-79.055 43.593 0 79.058 35.464 79.058 79.056 1e-3 43.591-35.465 79.055-79.058 79.056z"/>
</svg>
