<svg viewBox="0 -28 512 512" xmlns="http://www.w3.org/2000/svg">
<path d="m256 455.52c-7.2891 0-14.316-2.6406-19.793-7.4375-20.684-18.086-40.625-35.082-58.219-50.074l-0.089843-0.078125c-51.582-43.957-96.125-81.918-127.12-119.31-34.645-41.805-50.781-81.441-50.781-124.74 0-42.07 14.426-80.883 40.617-109.29 26.504-28.746 62.871-44.578 102.41-44.578 29.555 0 56.621 9.3438 80.445 27.77 12.023 9.3008 22.922 20.684 32.523 33.961 9.6055-13.277 20.5-24.66 32.527-33.961 23.824-18.426 50.891-27.77 80.445-27.77 39.539 0 75.91 15.832 102.41 44.578 26.191 28.41 40.613 67.223 40.613 109.29 0 43.301-16.133 82.938-50.777 124.74-30.992 37.398-75.531 75.355-127.11 119.31-17.625 15.016-37.598 32.039-58.328 50.168-5.4727 4.7891-12.504 7.4297-19.789 7.4297zm-112.97-425.52c-31.066 0-59.605 12.398-80.367 34.914-21.07 22.855-32.676 54.449-32.676 88.965 0 36.418 13.535 68.988 43.883 105.61 29.332 35.395 72.961 72.574 123.48 115.62l0.09375 0.078126c17.66 15.051 37.68 32.113 58.516 50.332 20.961-18.254 41.012-35.344 58.707-50.418 50.512-43.051 94.137-80.223 123.47-115.62 30.344-36.617 43.879-69.188 43.879-105.61 0-34.516-11.605-66.109-32.676-88.965-20.758-22.516-49.301-34.914-80.363-34.914-22.758 0-43.652 7.2344-62.102 21.5-16.441 12.719-27.895 28.797-34.609 40.047-3.4531 5.7852-9.5312 9.2383-16.262 9.2383s-12.809-3.4531-16.262-9.2383c-6.7109-11.25-18.164-27.328-34.609-40.047-18.449-14.266-39.344-21.5-62.098-21.5z"/>
</svg>
