<svg enable-background="new 0 0 512 512" fill="#565959" viewBox="0 0 512 512" xmlns="http://www.w3.org/2000/svg">
		<path d="m503.4 228.88-43.253-39.411v-130.68c0-8.315-6.741-15.057-15.057-15.057h-104.12c-8.315 0-15.057 6.741-15.057 15.057v8.374l-52.236-47.597c-10.083-9.189-25.288-9.188-35.367-1e-3l-229.72 209.32c-8.076 7.36-10.745 18.7-6.799 28.889 3.947 10.189 13.557 16.772 24.484 16.772h36.689v209.72c0 8.315 6.741 15.057 15.057 15.057h125.91c8.315 0 15.057-6.741 15.057-15.057v-127.34h74.001v127.34c0 8.315 6.741 15.057 15.057 15.057h125.91c8.315 0 15.057-6.741 15.056-15.057v-209.72h36.697c10.926 0 20.537-6.584 24.484-16.772 3.945-10.19 1.277-21.53-6.801-28.891zm-69.436 15.549c-8.315 0-15.057 6.741-15.057 15.057v209.72h-95.793v-127.34c0-8.315-6.742-15.057-15.057-15.057h-104.12c-8.315 0-15.057 6.741-15.057 15.057v127.34h-95.8v-209.72c0-8.315-6.741-15.057-15.057-15.057h-41.783l219.76-200.24 74.836 68.191c4.408 4.016 10.771 5.051 16.224 2.644 5.454-2.41 8.973-7.812 8.973-13.774v-27.407h74.002v122.28c0 4.237 1.784 8.276 4.916 11.13l40.803 37.18h-41.79z"/>
</svg>