<svg viewBox="0 0 512 512" xmlns="http://www.w3.org/2000/svg">
<path d="M440,240.6V232a88,88,0,0,0-176,0v32H232a8,8,0,0,0-8,8v32a8,8,0,0,0,8,8h.8l7.576,72H208V40a24,24,0,0,0-48,0V384H80a16.019,16.019,0,0,0-16,16v23.015L48.239,486.06A8,8,0,0,0,56,496H432a8,8,0,0,0,8-8V456.42l11.292-107.272A24.481,24.481,0,0,0,464,327.548V270A30.05,30.05,0,0,0,440,240.6ZM280,232a72,72,0,1,1,144,0v8H350a30.05,30.05,0,0,0-29.4,24H280Zm-40,48h80v16H240Zm8.886,32H320v15.56a24.787,24.787,0,0,0,7.376,17.539,23.6,23.6,0,0,0,16.992,6.9A24.107,24.107,0,0,0,360,345.873a23.957,23.957,0,0,0,32,0,23.959,23.959,0,0,0,31.992.008,23.755,23.755,0,0,0,10.968,5.574L424.8,448H310.246L304,423.015V400a16.019,16.019,0,0,0-16-16H256.462ZM176,40a8,8,0,0,1,16,0V384H176ZM80,400H288v16H80Zm18.246,80,12-48h15.508l-12,48Zm-20-48H93.754l-12,48H66.246Zm64,0h16.692l-6,48H130.246Zm26.816,48,6-48h17.876l6,48Zm46,0-6-48h16.692l12,48Zm39.184,0-12-48h15.508l12,48Zm32,0-12-48h15.508l12,48ZM424,480H318.246l-4-16H424Zm24-176v23.548a8.327,8.327,0,0,1-7.6,8.442A8,8,0,0,1,432,328V296H416v32a8,8,0,0,1-16,0V296H384v32a8,8,0,0,1-16,0V296H352v32a7.992,7.992,0,0,1-7.874,8h-.11a7.7,7.7,0,0,1-5.412-2.3,8.688,8.688,0,0,1-2.6-6.139V270a14.015,14.015,0,0,1,14-14h84a14.015,14.015,0,0,1,14,14Z"/>
<rect x="392" y="392" width="16" height="40"/>
<rect x="392" y="360" width="16" height="16"/>
<path d="M96.411,274.53a8,8,0,0,0,15.178,0,42.8,42.8,0,0,1,26.941-26.94,8,8,0,0,0,0-15.18,42.8,42.8,0,0,1-26.941-26.94,8,8,0,0,0-15.178,0A42.8,42.8,0,0,1,69.47,232.41a8,8,0,0,0,0,15.18A42.8,42.8,0,0,1,96.411,274.53ZM104,225.567A59.206,59.206,0,0,0,118.432,240,59.206,59.206,0,0,0,104,254.433,59.206,59.206,0,0,0,89.568,240,59.206,59.206,0,0,0,104,225.567Z"/>
<path d="M490.53,136.41a42.8,42.8,0,0,1-26.941-26.94,8,8,0,0,0-15.178,0,42.8,42.8,0,0,1-26.941,26.94,8,8,0,0,0,0,15.18,42.8,42.8,0,0,1,26.941,26.94,8,8,0,0,0,15.178,0,42.8,42.8,0,0,1,26.941-26.94,8,8,0,0,0,0-15.18ZM456,158.433A59.206,59.206,0,0,0,441.568,144,59.206,59.206,0,0,0,456,129.567,59.206,59.206,0,0,0,470.432,144,59.206,59.206,0,0,0,456,158.433Z"/>
<path d="M56,376a8,8,0,0,0,7.589-5.47A42.8,42.8,0,0,1,90.53,343.59a8,8,0,0,0,0-15.18,42.8,42.8,0,0,1-26.941-26.94,8,8,0,0,0-15.178,0A42.8,42.8,0,0,1,21.47,328.41a8,8,0,0,0,0,15.18,42.8,42.8,0,0,1,26.941,26.94A8,8,0,0,0,56,376Zm0-54.433A59.206,59.206,0,0,0,70.432,336,59.206,59.206,0,0,0,56,350.433,59.206,59.206,0,0,0,41.568,336,59.206,59.206,0,0,0,56,321.567Z"/>
</svg>
