<svg xmlns="http://www.w3.org/2000/svg" width="56.441" height="63.086" viewBox="0 0 56.441 63.086">
  <path d="M45.529.906c-.368-1.239-1.62-1.192-2.213.051-2.739,5.679-7.284,9.441-12.257,9.829l-6.274.489C16.471,11.923,9.235,21.208,8.629,32c-.04.713-.016,1.39,0,2.079A36.6,36.6,0,0,1,31.582,23.724c.69-.054,1.214.635,1.163,1.532A1.745,1.745,0,0,1,31.4,26.983C11.682,28.521,2.441,44.868.259,50.91c-.611,1.7-.105,3.547,1.135,4.13s2.751-.326,3.377-2.018a32.533,32.533,0,0,1,6.157-9.667c2.29,4.273,6.882,8.164,13.276,6.793,12.379-2.122,21.85-17.138,22.835-34.7A44.224,44.224,0,0,0,45.529.906Z" transform="translate(0.688 7.944) rotate(-9)" fill="#4d868c" stroke="#fff" stroke-width="1"/>
</svg>
