<svg enable-background="new 0 0 384.97 384.97" viewBox="0 0 384.97 384.97" xml:space="preserve" xmlns="http://www.w3.org/2000/svg" fill="#027368">

	
		<path d="m12.03 120.3h360.91c6.641 0 12.03-5.39 12.03-12.03 0-6.641-5.39-12.03-12.03-12.03h-360.91c-6.641 0-12.03 5.39-12.03 12.03s5.39 12.03 12.03 12.03z"/>
		<path d="m372.94 180.46h-360.91c-6.641 0-12.03 5.39-12.03 12.03s5.39 12.03 12.03 12.03h360.91c6.641 0 12.03-5.39 12.03-12.03s-5.389-12.03-12.03-12.03z"/>
		<path d="m372.94 264.67h-240.61c-6.641 0-12.03 5.39-12.03 12.03 0 6.641 5.39 12.03 12.03 12.03h240.61c6.641 0 12.03-5.39 12.03-12.03 1e-3 -6.641-5.389-12.03-12.03-12.03z"/></svg>
