<?xml version="1.0" encoding="UTF-8"?>
<svg enable-background="new 0 0 512 512" viewBox="0 0 512 512" xmlns="http://www.w3.org/2000/svg">
<path d="m469 415.01h32.999c5.522 0 10-4.478 10-10s-4.478-10-10-10h-32.999c-51.236 0-92.92-41.684-92.92-92.92 0-15.997 13.015-29.011 29.012-29.011 15.998 0 29.014 13.014 29.014 29.011 0 4.867 3.504 9.027 8.3 9.854 4.803 0.825 9.492-1.92 11.122-6.504 11.76-33.071 3.329-70.47-21.478-95.275-9.017-9.016-19.37-16.354-30.775-21.809-4.977-2.383-10.951-0.277-13.336 4.707-2.383 4.981-0.275 10.952 4.707 13.336 9.354 4.474 17.853 10.499 25.262 17.908 11.392 11.391 18.362 26.181 20.307 41.687-8.729-8.016-20.364-12.915-33.122-12.915-27.025 0-49.012 21.986-49.012 49.011-1e-3 62.265 50.655 112.92 112.92 112.92z"/>
<path d="m51.327 395.01h-41.327c-5.522 0-10 4.478-10 10s4.478 10 10 10h41.327c46.304 0 90.691-14.094 128.36-40.759 21.594-15.284 40.056-34.001 54.794-55.357 2.65 31.1 15.838 61.462 39.586 85.21 1.953 1.952 4.512 2.929 7.071 2.929s5.118-0.977 7.071-2.929c3.905-3.905 3.905-10.237 0-14.143-45.671-45.671-45.671-119.98 0-165.65 7.409-7.409 15.91-13.436 25.268-17.911 4.982-2.384 7.09-8.354 4.707-13.337-2.384-4.981-8.352-7.085-13.337-4.706-11.407 5.457-21.764 12.796-30.78 21.812-8.697 8.697-15.97 18.286-21.838 28.469-28.399-18.894-45.219-50.12-45.219-84.454 0-17.784 14.469-32.253 32.253-32.253 17.785 0 32.255 14.469 32.255 32.253 0 4.867 3.504 9.027 8.3 9.854 4.802 0.825 9.492-1.919 11.122-6.504 12.631-35.52 3.576-75.685-23.065-102.33-22.695-22.695-52.87-35.194-84.965-35.194-32.096 0-62.271 12.499-84.966 35.194-16.551 16.551-28.69 36.338-35.827 57.934-12.343 32.753-32.655 62.487-58.812 86.037-4.104 3.695-4.436 10.019-0.74 14.123 1.975 2.192 4.699 3.309 7.435 3.309 2.384 0 4.777-0.848 6.688-2.568 14.549-13.099 27.429-27.96 38.352-44.115 2.43 35.58 17.445 68.698 42.904 94.157 1.953 1.952 4.512 2.929 7.071 2.929s5.118-0.977 7.071-2.929c3.905-3.905 3.905-10.237 0-14.143-24.12-24.119-37.403-56.187-37.403-90.296s13.283-66.177 37.403-90.296c18.917-18.918 44.069-29.337 70.823-29.337 26.753 0 51.905 10.419 70.822 29.337 13.028 13.027 20.774 30.12 22.482 47.921-9.463-9.472-22.535-15.341-36.951-15.341-28.813 0-52.253 23.44-52.253 52.253 0 21.321 5.605 42.299 16.212 60.664 9.814 16.995 23.702 31.445 40.264 41.958-0.812 2.065-1.561 4.148-2.269 6.242-29.314 78.936-105.66 131.97-189.89 131.97z"/>
<path d="m509.072 460.386c-3.904-3.903-10.234-3.905-14.143 0-15.479 15.479-40.665 15.478-56.144-.001-23.278-23.276-61.151-23.275-84.428.001-15.479 15.479-40.665 15.478-56.144-.001-11.274-11.275-26.266-17.485-42.213-17.484-15.946 0-30.938 6.21-42.214 17.485-15.479 15.479-40.665 15.478-56.144-.001-11.276-11.275-26.269-17.485-42.214-17.484-15.947 0-30.938 6.21-42.214 17.485-15.478 15.478-40.664 15.479-56.144 0-3.906-3.904-10.238-3.904-14.143 0-3.905 3.905-3.905 10.237 0 14.143 23.277 23.275 61.151 23.274 84.429-.001 7.498-7.498 17.467-11.627 28.071-11.627s20.573 4.129 28.071 11.628c23.277 23.275 61.151 23.274 84.429-.001 7.498-7.498 17.467-11.627 28.071-11.627s20.573 4.129 28.071 11.628c23.277 23.275 61.151 23.276 84.429-.001 15.479-15.479 40.664-15.478 56.143.001 11.639 11.638 26.927 17.457 42.214 17.457 15.288 0 30.576-5.819 42.215-17.457 3.907-3.905 3.907-10.237.002-14.143z"/>
<path d="m353.06 197.45c-2.63 0-5.21-1.069-7.069-2.93-1.86-1.86-2.931-4.44-2.931-7.07 0-2.64 1.07-5.21 2.931-7.08 1.859-1.859 4.439-2.92 7.069-2.92s5.21 1.061 7.07 2.92c1.87 1.87 2.93 4.45 2.93 7.08s-1.06 5.2-2.93 7.07c-1.86 1.861-4.43 2.93-7.07 2.93z"/>
<path d="m353.06 197.45c-2.63 0-5.21-1.069-7.069-2.93-1.86-1.86-2.931-4.44-2.931-7.07 0-2.64 1.07-5.21 2.931-7.08 1.859-1.859 4.439-2.92 7.069-2.92s5.21 1.061 7.07 2.92c1.87 1.87 2.93 4.45 2.93 7.08s-1.06 5.2-2.93 7.07c-1.86 1.861-4.43 2.93-7.07 2.93z"/>
</svg>
