<svg enable-background="new 0 0 512.018 512.018" viewBox="0 0 512.02 512.02" xmlns="http://www.w3.org/2000/svg">
<path d="m236.94 246.46c14.321 0 27.497-7.8 34.385-20.356l10.243-18.67c9.372-17.082 6.065-38.4-8.04-51.841-11.836-11.279-28.754-14.87-44.153-9.371-18.934 6.763-31.655 24.815-31.655 44.92v16.099c0 21.625 17.594 39.219 39.22 39.219zm-19.22-55.318c0-11.675 7.387-22.158 18.382-26.085 2.554-0.912 5.185-1.357 7.79-1.357 5.8 0 11.467 2.206 15.838 6.372 7.548 7.193 9.317 18.601 4.302 27.743l-10.243 18.67c-3.376 6.153-9.833 9.975-16.851 9.975-10.598 0-19.22-8.622-19.22-19.219v-16.099z"/>
<path d="m509.92 285.86c-4.519-13.49-15.525-23.311-29.441-26.27-5.442-1.157-10.991-1.11-16.302-8e-3 0.842-7.664 1.281-15.392 1.281-23.123 0-39.054-10.823-77.159-31.298-110.2-2.91-4.695-9.075-6.142-13.768-3.232-4.694 2.91-6.141 9.074-3.232 13.768 10.507 16.952 18.199 35.384 22.89 54.613h-87.668c-9.91 0-17.973-8.063-17.973-17.973 0-6.622 3.622-12.686 9.452-15.825l2.879-1.55c9.38-5.05 15.207-14.805 15.207-25.458 0-15.168-11.856-27.841-26.991-28.85-28.613-1.907-51.302-24.831-53.376-53.026 26.933 3.645 52.769 13.025 75.831 27.668 4.663 2.96 10.842 1.581 13.802-3.082s1.581-10.842-3.082-13.802c-33.496-21.269-72.269-32.511-112.13-32.511-115.49 0-209.45 93.96-209.45 209.45 0 25.618 4.56 50.532 13.537 74.194l-54.707 28.525c-4.897 2.553-6.797 8.593-4.244 13.49 2.554 4.897 8.594 6.798 13.49 4.244l54.843-28.594c34.843-18.167 75.868-20.518 112.56-6.452l112.97 43.308c4.239 1.625 7.499 4.843 9.178 9.061 1.68 4.218 1.524 8.796-0.438 12.89-3.058 6.381-10.073 10.045-17.057 8.92l-134.51-21.733c-5.456-0.882-10.586 2.825-11.467 8.277s2.825 10.586 8.277 11.467l134.51 21.733c1.895 0.306 5.799 0.463 5.858 0.463 30.232 0 59.315-12.756 79.791-34.999l88.518-96.151c4.709-5.115 11.862-7.395 18.66-5.949 6.918 1.471 12.39 6.354 14.637 13.061s0.82 13.899-3.816 19.241l-89.64 103.28c-27.728 31.948-67.893 50.271-110.2 50.271h-277.3c-5.523 0-10 4.477-10 10s4.477 10 10 10h277.3c48.101 0 93.771-20.834 125.3-57.161l89.64-103.28c9.324-10.744 12.194-25.212 7.675-38.703zm-253.92-238.85c1.825 0 3.647 0.033 5.467 0.085 1.307 39.437 32.518 71.981 72.155 74.623 4.666 0.311 8.321 4.217 8.321 8.894 0 3.284-1.796 6.292-4.688 7.848l-2.879 1.55c-12.318 6.633-19.971 19.444-19.971 33.435 0 20.938 17.035 37.973 37.973 37.973h91.417c1.096 8.266 1.658 16.631 1.658 25.045 0 10.036-0.801 20.064-2.361 29.916h-79.306c-13.396 0-26.449 3.806-37.747 11.007-15.656 9.979-26.561 25.44-30.707 43.537-1.708 7.453-2.168 15-1.465 22.401l-95.963-36.788c2.859-6.9 4.349-14.309 4.349-21.903 0-19.57-9.821-37.583-26.271-48.184l-23.917-15.413c-7.583-4.887-12.111-13.19-12.111-22.212 0-8.335 3.999-16.274 10.697-21.235 11.853-8.779 18.929-22.826 18.929-37.575 0-20.456-16.643-37.098-37.099-37.098h-10.73c34.335-34.51 81.839-55.906 134.25-55.906zm-177.61 255.53c-7.859-21.087-11.844-43.271-11.844-66.079 0-42.559 14.109-81.883 37.89-113.55h28.046c9.428 0 17.099 7.67 17.099 17.098 0 8.441-4.05 16.479-10.833 21.503-11.768 8.716-18.793 22.663-18.793 37.307 0 15.85 7.954 30.438 21.277 39.024l23.917 15.413c10.71 6.902 17.105 18.63 17.105 31.373 0 5.249-1.112 10.356-3.205 15.08-33.016-10.135-68.415-9.089-100.66 2.827zm276.03 65.169c-6.026 6.546-12.97 12.078-20.538 16.484l-12.843-21.211c-14.334-23.228-7.271-54.061 15.747-68.732 8.08-5.15 17.416-7.872 26.997-7.872h65.512z"/>
<path d="m397.8 106.2c2.63 0 5.21-1.07 7.07-2.93s2.93-4.44 2.93-7.07-1.07-5.21-2.93-7.07-4.44-2.93-7.07-2.93-5.21 1.07-7.07 2.93-2.93 4.44-2.93 7.07 1.07 5.21 2.93 7.07 4.44 2.93 7.07 2.93z"/>
</svg>
