<svg enable-background="new 0 0 512 512" viewBox="0 0 512 512" xmlns="http://www.w3.org/2000/svg">
<path d="m3e-3 372.76c0.088 3.587 2.091 6.852 5.249 8.556l123.11 66.42c2.991 1.614 6.669 1.624 9.721-0.125 3-1.72 4.899-4.869 5.021-8.325l4.96-141.42c0.127-3.633-1.727-7.049-4.842-8.922-3.117-1.873-7.002-1.906-10.151-0.089l-25.275 14.591c-2.522-10.585-3.796-21.454-3.796-32.451 0-43.742 20.181-84.241 55.369-111.11 2.608-1.992 4.073-5.137 3.92-8.416-0.154-3.278-1.906-6.273-4.689-8.012l-53.36-33.35c-3.859-2.412-8.862-1.913-12.171 1.214-43.802 41.422-69.069 98.515-69.069 159.68 0 25.339 4.254 50.097 12.657 73.717l-31.831 19.246c-3.071 1.856-4.911 5.215-4.823 8.802zm54.121-15.237c4.189-2.533 5.929-7.725 4.111-12.27-9.445-23.625-14.235-48.609-14.235-74.258 0-52.743 20.293-102.07 57.318-139.76l34.979 21.862c-33.403 30.36-52.297 72.595-52.297 117.89 0 17.32 2.768 34.372 8.227 50.684 2.003 5.984 9.002 8.653 14.482 5.487l20.734-11.969-3.763 107.29-93.536-50.464z"/>
<path d="m305.85 1.254c-3.18-1.762-7.066-1.66-10.147 0.267l-120 75c-2.924 1.828-4.7 5.032-4.7 8.48s1.776 6.653 4.7 8.48l120 75c3.082 1.926 6.967 2.028 10.147 0.267 3.18-1.762 5.152-5.111 5.152-8.747v-29.177c54.147 16.224 94.325 64.604 99.44 121.55 0.643 7.158 8.378 11.272 14.655 7.935l56.12-29.84c3.931-2.09 6.007-6.527 5.092-10.884-18.312-87.218-88.194-154.93-175.31-170.95v-38.633c0-3.635-1.973-6.984-5.152-8.746zm159.21 215.15-36.695 19.511c-11.797-64.411-62.352-114.86-125.37-127.71-6.185-1.261-11.999 3.465-11.999 9.798v23.948l-91.132-56.957 91.132-56.957v29.087c0 4.976 3.658 9.195 8.584 9.899 80.313 11.487 145.93 71.087 165.48 149.38z"/>
<circle cx="388" cy="480" r="10"/>
<path d="m453.16 415.72c-9.435 11.966-20.562 22.938-33.071 32.612-4.369 3.378-5.172 9.659-1.793 14.028s9.658 5.173 14.028 1.793c11.443-8.849 21.852-18.701 31.029-29.361l33.666 19.358c3.15 1.812 7.036 1.771 10.148-0.105s4.961-5.294 4.83-8.926l-5.12-141.42c-0.125-3.443-2.014-6.58-4.999-8.301s-6.646-1.784-9.689-0.167l-124.95 66.42c-3.21 1.707-5.241 5.021-5.305 8.655s1.851 7.018 4.999 8.835l25.116 14.5c-25.931 23.89-63.158 38.36-100.05 38.36-26.48 0-52.274-7.462-74.594-21.581-3.027-1.915-6.847-2.064-10.015-0.392s-5.199 4.912-5.324 8.492l-2.33 66.4c-0.145 4.133 2.269 7.929 6.073 9.55 27.293 11.633 56.292 17.531 86.19 17.531 18.804 0 37.686-2.367 56.122-7.034 5.354-1.355 8.596-6.794 7.24-12.148-1.355-5.354-6.794-8.595-12.148-7.24-16.833 4.261-34.064 6.422-51.214 6.422-24.892 0-49.089-4.492-72.031-13.362l1.51-43.039c21.854 10.769 45.93 16.401 70.521 16.401 46.79 0 94.189-20.666 123.7-53.934 4.192-4.727 3.005-12.13-2.481-15.297l-20.663-11.929 94.908-50.451 3.89 107.43-25.359-14.582c-4.303-2.472-9.766-1.417-12.839 2.479z"/>
</svg>
