<svg viewBox="0 0 64 64" xmlns="http://www.w3.org/2000/svg">
<path d="M47,40H18a2,2,0,0,0-2,2V54a2,2,0,0,0,2,2H47a2,2,0,0,0,2-2V42A2,2,0,0,0,47,40Zm0,2v3H18V42ZM18,54V47H47v7Z"/>
<path d="M61,43H60V38a3.9,3.9,0,0,0-.25-1.36A.984.984,0,0,0,60,36V33a1,1,0,0,0-1-1H54V25a5,5,0,0,0,5-5V14a5,5,0,0,0-5-5H48V7a1,1,0,0,0-1-1H42a1,1,0,0,0-1,1V9H39.75L38.38,4.18A3.018,3.018,0,0,0,35.49,2H28.51a3.018,3.018,0,0,0-2.89,2.18L24.25,9H23V7a1,1,0,0,0-1-1H17a1,1,0,0,0-1,1V9H10a5,5,0,0,0-5,5v6a5,5,0,0,0,5,5v7H5a1,1,0,0,0-1,1v3a.984.984,0,0,0,.25.64A3.9,3.9,0,0,0,4,38v5H3a1,1,0,0,0-1,1v9a3.009,3.009,0,0,0,3,3h5v1a5,5,0,0,0,5,5H49a5,5,0,0,0,5-5V56h5a3.009,3.009,0,0,0,3-3V44A1,1,0,0,0,61,43ZM10,54H5a1,1,0,0,1-1-1V45h6Zm0-11H6V38a2.023,2.023,0,0,1,.27-1H9.73A2.023,2.023,0,0,1,10,38Zm0-8H6V34h4Zm48-1v1H54V34Zm0,4v5H54V38a2.023,2.023,0,0,1,.27-1h3.46A2.023,2.023,0,0,1,58,38ZM43,8h3V28H43Zm5,22v2H41V30Zm-2,4v1H43V34ZM27.55,4.72A1,1,0,0,1,28.51,4h6.98a1,1,0,0,1,.96.72L37.67,9H26.33ZM23,11H41V23H23ZM18,8h3V28H18Zm5,22v2H16V30Zm-2,4v1H18V34ZM10,23a3.009,3.009,0,0,1-3-3V14a3.009,3.009,0,0,1,3-3h6V23ZM52,57a3.009,3.009,0,0,1-3,3H15a3.009,3.009,0,0,1-3-3V25h4v3H15a1,1,0,0,0-1,1v4a1,1,0,0,0,1,1h1v2a1,1,0,0,0,1,1h5a1,1,0,0,0,1-1V34h1a1,1,0,0,0,1-1V29a1,1,0,0,0-1-1H23V25H41v3H40a1,1,0,0,0-1,1v4a1,1,0,0,0,1,1h1v2a1,1,0,0,0,1,1h5a1,1,0,0,0,1-1V34h1a1,1,0,0,0,1-1V29a1,1,0,0,0-1-1H48V25h4ZM48,23V11h6a3.009,3.009,0,0,1,3,3v6a3.009,3.009,0,0,1-3,3ZM60,53a1,1,0,0,1-1,1H54V45h6Z"/>
</svg>
