<svg viewBox="0 0 24.767 30.878" xmlns="http://www.w3.org/2000/svg">
<path transform="translate(-3.563)" d="M24.733,8.389a.855.855,0,0,1-.405-.733,8.424,8.424,0,0,0-16.778,0,.858.858,0,0,1-.4.733A8.445,8.445,0,0,0,9.831,23.453a2.3,2.3,0,0,0,1.467.078c.488-.242.978-2.357.733-2.847a2.772,2.772,0,0,0-1.3-.651,4.981,4.981,0,0,1-3.664-4.8,4.9,4.9,0,0,1,1.3-3.345,4.578,4.578,0,0,1,1.22-.974,2.883,2.883,0,0,0,1.467-2.527A4.685,4.685,0,0,1,11.3,6.84a4.971,4.971,0,0,1,9.447,0,4.685,4.685,0,0,1,.243,1.545A2.713,2.713,0,0,0,22.456,10.9a3.421,3.421,0,0,1,1.217.968,4.859,4.859,0,0,1,1.3,3.343,4.939,4.939,0,0,1-4.966,4.968,5.7,5.7,0,0,0-5.7,5.682V29.1a3.036,3.036,0,0,0,.244,1.469,3.674,3.674,0,0,0,2.931,0,2.825,2.825,0,0,0,.251-1.469V25.781a2.2,2.2,0,0,1,2.2-2.2,8.369,8.369,0,0,0,4.812-15.23l-.019.042Z"/>
</svg>
