<svg enable-background="new 0 0 512 512" version="1.1" viewBox="0 0 512 512" xmlns="http://www.w3.org/2000/svg">	
		<path d="m437.09 160.11c3.984-9.778 5.998-20.118 5.998-30.835 0-2.173-0.086-4.369-0.256-6.524-0.316-4.012-3.827-7.005-7.836-6.692-4.011 0.316-7.008 3.824-6.692 7.836 0.139 1.777 0.211 3.587 0.211 5.38 0 10.904-2.534 21.332-7.532 30.994-0.934 1.803-1.071 3.914-0.381 5.824s2.146 3.445 4.016 4.235c28.454 12.027 46.84 39.757 46.84 70.645 0 41.064-32.133 74.68-73.154 76.53-3.153 0.142-5.856 2.298-6.695 5.34-5.43 19.669-27.246 33.945-51.872 33.945-11.734 0-22.926-3.123-32.145-8.889l24.074-37.99c1.687-2.662 2.553-5.613 2.643-8.553 0.149-4.9-1.859-9.768-5.821-13.215-6.703-5.832-16.843-5.447-23.086 0.873l-18.065 18.289 5.89-43.63c0.622-4.613-0.709-9.326-3.652-12.931-2.575-3.155-6.228-5.269-10.212-5.959-0.569-0.098-1.145-0.168-1.725-0.207l-6.508-0.44c-3.238-0.22-6.335 0.485-9.019 1.9-4.474 2.358-7.805 6.692-8.742 12.014l-5.698 32.375-5.698 32.374-35.182-43.267c-1.167-1.435-2.543-2.638-4.056-3.591-9e-3 -6e-3 -0.018-0.013-0.027-0.019-0.163-0.102-0.334-0.19-0.5-0.287-2.165-1.257-4.579-2.032-7.062-2.252-0.079-7e-3 -0.16-6e-3 -0.239-0.012-0.366-0.027-0.732-0.05-1.1-0.054-2.242-0.022-4.506 0.401-6.65 1.303l-6.799 2.858c-4.515 1.897-7.978 5.655-9.502 10.309-1.524 4.655-0.953 9.733 1.567 13.934l28.798 48c-8.59 4.588-18.647 7.068-28.958 7.068-24.627 0-46.442-14.276-51.872-33.944-0.84-3.043-3.543-5.198-6.695-5.34-41.021-1.85-73.154-35.466-73.154-76.531 0-30.889 18.386-58.619 46.84-70.645 1.87-0.79 3.326-2.325 4.016-4.235s0.552-4.021-0.381-5.824c-4.998-9.662-7.532-20.09-7.532-30.994 0-37.265 30.318-67.583 67.583-67.583 10.387 0 20.359 2.3 29.637 6.836 1.943 0.951 4.209 0.988 6.184 0.102 1.973-0.886 3.452-2.603 4.034-4.687 8.118-29.067 34.88-49.368 65.079-49.368s56.961 20.301 65.079 49.368c0.583 2.084 2.061 3.802 4.034 4.687 1.974 0.887 4.241 0.85 6.184-0.102 9.278-4.536 19.25-6.836 29.637-6.836 24.911 0 47.73 13.639 59.551 35.596 1.907 3.543 6.327 4.869 9.87 2.961 3.544-1.907 4.869-6.327 2.961-9.87-14.367-26.684-42.102-43.26-72.382-43.26-9.839 0-19.373 1.699-28.444 5.061-12.203-31.097-42.563-52.18-76.495-52.18-33.931 0-64.292 21.083-76.49 52.179-9.071-3.362-18.605-5.061-28.444-5.061-45.302 0-82.157 36.855-82.157 82.156 0 10.717 2.014 21.058 5.998 30.835-29.962 15.653-48.94 46.627-48.94 80.863 0 47.179 35.631 86.097 82.019 90.723 9.12 23.595 34.75 39.665 64.275 39.665 12.944 0 25.62-3.214 36.457-9.142l3.611 6.018c4.926 8.212 6.965 17.938 5.74 27.389-1.06 8.171-2.365 17.793-4.02 27.211-0.696 3.964 1.953 7.741 5.916 8.437 3.969 0.697 7.741-1.953 8.437-5.916 1.705-9.703 3.039-19.527 4.119-27.86 1.645-12.691-1.087-25.746-7.695-36.759l-39.907-66.517c-0.472-0.786-0.337-1.53-0.214-1.904 0.122-0.374 0.454-1.053 1.298-1.408l6.8-2.858c0.936-0.394 2.04-0.118 2.681 0.671l38.835 47.76c0.103 0.126 0.212 0.244 0.319 0.365 1.443 1.64 3.238 2.819 5.211 3.466 2.096 0.688 4.386 0.778 6.651 0.205 0.025-6e-3 0.05-0.01 0.076-0.017h1e-3 1e-3c2.201-0.572 4.115-1.714 5.604-3.259 0.058-0.061 0.121-0.118 0.178-0.179 0.052-0.057 0.1-0.118 0.151-0.176 1.428-1.611 2.418-3.615 2.813-5.862l12.399-70.449c0.205-1.164 1.274-1.977 2.426-1.901l6.509 0.44c0.867 0.059 1.394 0.553 1.63 0.843 0.236 0.289 0.615 0.903 0.498 1.766l-6.947 51.469c-0.086 0.637-0.12 1.271-0.104 1.898 0.108 4.389 2.632 8.422 6.667 10.404 0.288 0.142 0.58 0.271 0.875 0.387 1.473 0.584 3.019 0.858 4.55 0.837 3.062-0.042 6.067-1.263 8.323-3.548l23.622-23.916c0.408-0.413 0.939-0.636 1.481-0.673 0.024-2e-3 0.047-8e-3 0.071-9e-3 0.012 0 0.024 2e-3 0.036 2e-3 0.414-9e-3 0.83 0.089 1.201 0.302 0.127 0.073 0.249 0.159 0.364 0.259 0.865 0.753 1.047 2.004 0.434 2.973l-32.077 50.616c-6.737 10.632-9.848 23.417-8.758 35.999 3.052 35.249 8.341 74.994 31.324 108.7h-107.74c8.224-12.196 14.614-26.071 19.392-42.043 1.153-3.855-1.037-7.916-4.893-9.069-3.857-1.153-7.917 1.037-9.069 4.893-5.828 19.482-14.22 35.433-25.657 48.761-1.853 2.16-2.279 5.202-1.09 7.788s3.774 4.243 6.62 4.243h137.18c2.846 0 5.432-1.657 6.62-4.243 1.189-2.586 0.763-5.628-1.09-7.787-28.059-32.706-33.853-75.221-37.082-112.5-0.815-9.421 1.51-18.99 6.549-26.941l0.204-0.323c11.543 7.234 25.447 11.158 39.944 11.158 29.525 0 55.155-16.07 64.275-39.666 46.388-4.626 82.019-43.544 82.019-90.722 2e-3 -34.237-18.976-65.211-48.938-80.864z"/>
</svg>
